<svg id="Layer_1" data-name="Layer 1" xmlns="http://www.w3.org/2000/svg" viewBox="0 0 1920 1080"><defs><style>.cls-1{fill:#2f413c;}.cls-2,.cls-3,.cls-6{fill:#1f1a19;}.cls-3{font-size:124.24px;letter-spacing:0.02em;}.cls-3,.cls-6{font-family:AmericanTypewriter, American Typewriter;}.cls-4{font-size:149.09px;letter-spacing:-0.06em;}.cls-5{letter-spacing:0.02em;}.cls-6{font-size:156.94px;letter-spacing:0.34em;}.cls-7{letter-spacing:0.42em;}.cls-8{fill:none;stroke:#000;stroke-miterlimit:10;}</style></defs><title>baptist_confession</title><rect class="cls-1" width="1920" height="1080"/><path class="cls-2" d="M252.6,279c4.88,16.87-4.37,34.32-27.09,53.14a117.74,117.74,0,0,1,24.36-3.37c19.7-.33,31.71,7.56,36.12,23.08,4.33,15.24.24,30.63-11.9,46.43s-30.35,29.57-54.64,42c-8.78,4.5-20,9.86-33.64,16.29s-23.54,11.53-29.76,15.06q-8.13,4.64-15.06,9.54t-13.51,9.71a21.39,21.39,0,0,0-2,1.49l-2.08,1.25c-8.59,5-13.92,4.74-16.05-.8-1.95-5.06.16-9.49,6.35-13.23a87.19,87.19,0,0,1,8.37-4.14,69.69,69.69,0,0,0,6.49-3.27c10.21-6,13.22-14.86,8.94-26.7L102.58,349c-4.33-12-12-14.89-22.79-8.51a70.76,70.76,0,0,0-6.5,4.44c-3.63,2.75-6.39,4.71-8.29,5.85-6.55,4-10.78,3.44-12.72-1.63C50.15,343.66,54,337.88,63.75,332l4.15-2.48Q76,325.68,84.22,322c4.67-2.13,10.86-5.42,18.6-9.8,8.18-4.62,19.64-11.61,34.52-20.73q15-9.17,32.74-18.23c22.14-11.25,40.67-16.08,55.24-14.93S249,266.42,252.6,279ZM132.13,351.7q4.49,12.78,8.53,14.14c2.7.91,8.56-1.14,17.64-6q8.87-4.76,17.77-9.41c37.53-19.5,53.84-37.61,48.13-56.59-5.17-17.19-23.95-18.43-55.76-2.16-22.18,11.42-35.31,19.92-39.63,24.76s-5,11.65-1.91,20.33Zm17.14,49Q154,414,158.65,427.43c3.66,10.45,8.15,15.63,13.46,15.59s17.91-5.54,38-15.93c38.36-19.67,54.56-39.87,47.72-63-6.25-21.15-28.84-23.15-67-3.66q-13.15,6.75-26.21,13.76c-11.33,6.08-17.13,11.62-17.44,16.39Q147,394.15,149.27,400.66Z"/><path class="cls-2" d="M526.45,288.85q-8.19-11-16.48-21.86-2.76-3.54-5.11-3.95c-1.58-.27-4.58.22-9,1.5q-29.62,8.58-59,18.28c-4.41,1.46-7.3,3.07-8.68,4.8s-2.82,5.68-4.28,11.82q-2.6,11.38-5.09,22.78a13.76,13.76,0,0,0-.09,5.77c1.23,5.41,6,6.63,14.43,3.77q3.22-1.1,9.11-3.61t8.8-3.45c8.87-2.9,13.93-1.31,15.16,4.63,1.16,5.61-3.11,9.93-12.77,13.09q-2.58.84-7.18,1.83-8.22,1.88-16.42,3.86c-3.06.73-8,2.28-14.85,4.71-7.47,2.66-12.65,4.71-15.56,6.08q-6.56,3.09-13.09,6.24c-5.8,2.8-10.07,4.75-12.82,5.81-8.25,3.19-13.06,2.08-14.48-3.44-1.5-5.84,1.78-10.38,9.89-13.52a6.21,6.21,0,0,1,4.08-.48l4.16-1.59c5.76-2.19,9.71-5.59,11.86-10.25,1-1.82,2.15-6.58,3.61-14.27q15-74.71,33.48-149.32c2.16-8.33,8.68-14.26,19.56-17.61,10.63-3.28,18.41-1.79,23.25,4.36q43.21,54.33,83.58,110.69c5.11,7.12,9.39,11.59,12.89,13.41s8.1,2,13.82.66a18.19,18.19,0,0,0,3.91-1.29l9.15-2.84c8.37-1.93,13,0,13.81,5.69.88,6.05-2.85,10-11.16,11.89-2.41.55-5.6,1.09-9.6,1.64a293.8,293.8,0,0,0-31.11,5.6c-8.07,2.08-21,6.17-38.76,12.64q-6.74,2.44-10.3,3.5c-8.65,2.52-13.53.94-14.67-4.86s3.07-10.14,12.67-12.94q2.94-.86,8.76-2c3.88-.74,6.81-1.38,8.77-1.93,7.21-2,10.41-5.28,9.59-9.91Q530.09,293.79,526.45,288.85Zm-33.58-45.6q-21.78-31-44.37-61.43-8.72,40.13-16.48,80.27a9,9,0,0,0-.28,2c.33,1.52,2.15,1.73,5.48.64q26.43-8.66,53.07-16.41,4-1.17,3.64-3.22A6.17,6.17,0,0,0,492.87,243.25Z"/><path class="cls-2" d="M705.47,245.32q-5.37-52.23-10.75-104.45c-1.31-12.84-7.94-18.37-19.86-16.39q-2.8.47-7.31,1.66c-4.39,1.18-7.51,1.94-9.38,2.27-7.45,1.32-11.52-.85-12.22-6.57-.74-6.07,4.08-10.08,14.48-11.89,1.65-.29,3.44-.51,5.35-.66q8.78-.71,17.55-1.32c5.73-.39,12.85-1.24,21.37-2.5q8.88-1.31,21.26-3.8c19.34-3.84,34-6.13,44-7.23a221.77,221.77,0,0,1,39.44-1.22c15.86,1.09,28.44,5.66,37.69,13.48a39.29,39.29,0,0,1,14.49,29.66c.61,16.48-6.44,29.47-20.93,39.26s-35.64,15.86-63.6,18.91q-12.2,1.33-24.39,2.85c-7.56.94-12,1.54-13.39,1.72l-.68.09c-3.66.48-6,1.28-6.91,2.38s-1.25,3.38-.93,6.84c.16,1.74.32,3.48.47,5.21q3,33.06,6.18,39.74c2.1,4.45,7.16,6.12,15.2,5.1a32,32,0,0,0,7-1.67c4.89-1,7.89-1.48,9-1.61,6.93-.81,10.61,1.61,11,7.2.46,6.29-4.2,9.95-14,11.12l-4.71,0q-8.4.1-16.8.31a182.39,182.39,0,0,0-21,2.15,171.11,171.11,0,0,0-18.86,3.67q-9.51,2.58-19,5.26a11.45,11.45,0,0,0-2,.6l-2.32.4c-9.92,1.73-15.24-.37-16-6.44a8.15,8.15,0,0,1,2.25-6.66,11.91,11.91,0,0,1,7-3.79,61.25,61.25,0,0,1,9.09-.78,36.7,36.7,0,0,0,7.06-.66C701.79,265.71,706.8,258.35,705.47,245.32Zm20-122.94q-2.24,3-1.16,14.72,1.77,19.34,3.53,38.68c.43,4.71,5.05,6.79,13.86,6.34-.69.1,6-.81,20.05-2.48,16.36-1.93,29.91-4.26,40.66-7.2,20.34-5.57,30.19-16.49,29.37-33.32-1-22.15-20.84-32.15-59.27-28.05C744.06,114.18,728.41,118.3,725.44,122.38Z"/><path class="cls-2" d="M1048.52,228.28c-.46,13.14,5,20,16.46,20.72a75.31,75.31,0,0,0,8.11-.12,72.45,72.45,0,0,1,8.11-.07,12.23,12.23,0,0,1,7.44,3.07,7.55,7.55,0,0,1,2.87,6.16c-.33,6.14-5.5,8.76-15.53,8l-2-.14a16.77,16.77,0,0,0-2.33-.43q-8.14-1.49-16.31-2.89a173.58,173.58,0,0,0-21.06-2.15,187.37,187.37,0,0,0-22.47.17q-8.4.66-16.78,1.39a12.44,12.44,0,0,0-2.35.22l-2.34-.05c-9.82-.18-14.71-3.27-14.67-9.42,0-5.6,3.64-8.39,10.84-8.27a71.59,71.59,0,0,1,8.09.81,75.84,75.84,0,0,0,8.08.85c11.22.3,17-6,17.32-19.19l.45-18.4q.28-11.57.56-23.13.27-11.17.55-22.35.51-21.42,1-42.85c.31-12.43-8.22-19-25.59-19.43l-11.07-.2c-17.14-.25-25.71,5.95-25.7,18.21a74.28,74.28,0,0,0,.35,8.94l1.41,9.74a50,50,0,0,1,.34,6.57c0,11-4.56,16.55-13.62,16.6-8.59.06-12.93-3.89-13-12q0-3.42.59-11.85.94-12.63.92-16.05-.06-6.57-.71-13.67-1.31-13.92-1.3-11.82c-.07-7.36,4.44-11.12,13.53-11.18,3.34,0,11.11.19,23.3.8,1.18,0,11,.38,29.37,1.51q20.42.48,40.81,1.46c4.78.24,17.55.65,38.31,1.78,4.53.31,12.29.63,23.27,1.08,9.8.35,17.43.83,22.91,1.36,11.92,1.15,17.61,5.4,17.1,12.56l0,.52a96.89,96.89,0,0,1-1.58,9.6q-1.38,7-3,15c-.07,1-.14,1.93-.2,2.89a109.67,109.67,0,0,0,.19,12.42q.63,11.16.44,13.78c-.5,7.17-5.27,10.25-14.3,9.35-8.8-.86-12.94-5.63-12.42-14.41a135.77,135.77,0,0,1,1.9-14,136.41,136.41,0,0,0,1.91-14c.75-12.1-8.25-19.1-27-20.53-3.33-.25-6.65-.49-10-.72-8.79-.61-15.14.37-19,2.86s-6.2,6.89-6.9,13.17l-2.07,18.32Q1050.12,183.61,1048.52,228.28Z"/><path class="cls-2" d="M1262.21,147c1.52-12.83-3.71-20.36-15.72-22.38a37.8,37.8,0,0,0-7.47-.71,74.13,74.13,0,0,1-9.62-.75,13.1,13.1,0,0,1-7.53-3.69,8,8,0,0,1-2.57-6.62c.6-6.08,6.13-8.36,16.57-6.69q2.13.35,5,1.06,9.32,2.46,18.61,5,10.53,2.9,21.84,5,11,2.07,24.21,3.4,8.05.83,16.11,1.74c1.9.23,3.57.49,5,.8,10.35,2.23,15.07,6.44,14.17,12.47a6.91,6.91,0,0,1-4,5.37,11.91,11.91,0,0,1-8.06.76,85.61,85.61,0,0,1-9.36-2.81,39.91,39.91,0,0,0-7.29-2.07c-12-2.47-18.77,2.79-20.41,15.6l-13.5,104.15c-1.67,13,3.14,20.57,14.4,22.9a65.26,65.26,0,0,0,7,.95,82.87,82.87,0,0,1,9,1.14c6.85,1.5,9.86,5,9,10.56-.92,6.21-6.19,8.21-15.84,6.13l-2.3-.49a12.19,12.19,0,0,0-2.27-.75q-8.42-2.86-16.86-5.62a144.37,144.37,0,0,0-18-4.59,189.59,189.59,0,0,0-25-3.19c-5.15-.28-10.3-.52-15.45-.75a17.21,17.21,0,0,0-2.35-.11l-2.65-.43c-9.5-1.52-13.95-5.35-13.33-11.62.56-5.56,4.29-7.84,11.2-6.75,1.11.17,4.1.82,9,2a35.65,35.65,0,0,0,6.92,1.94c11.33,1.91,17.75-3.56,19.3-16.58Z"/><path class="cls-2" d="M1515,170.05c22.56,7.57,39.66,19.54,51.15,35.36.29-1.17.57-2.35.86-3.52,1.58-6.56,5.9-8.53,13-5.84,7.73,2.94,10.68,8.06,8.87,15.26-.13.5-.25,1-.38,1.5q-.14.51-2.91,7.15a117,117,0,0,0-5.23,16.44c-.21.84-.66,3.6-1.34,8.3q-.76,5.2-1.52,10.43a16,16,0,0,1-.55,3.65c-2,8-7.12,10.45-15.29,7.34-8.62-3.27-12.14-8.21-10.53-14.94l.3-1.27,2.31-6.56c.78-2.27,1.34-4.07,1.67-5.42,2.43-10.08-.21-19.68-8-28.73s-19.87-16.43-36.1-21.88c-14.86-5-27.32-6-37.24-3.36s-15.77,8.71-17.59,17.91c-2.12,10.74,2.79,20.58,14.55,29.72,6.62,5,18.67,11.45,36,19.74,25.79,12.29,42.69,23.46,51,32.66,12.46,13.75,16.61,28.25,12.76,43.28-4,15.72-14.52,25.59-31.28,30s-36.37,2.62-59.17-5.11c-24.3-8.23-43.27-20.59-57.17-37.69-.13.67-.28,1.43-.44,2.27s-.26,1.35-.29,1.52a24.35,24.35,0,0,1,.27,5.68c-1.21,6.23-5.79,8.14-13.76,5.84-8.65-2.49-12.34-7.27-11-14.46a2.27,2.27,0,0,1,1.35-1.78q2-6.46,3.95-12.92c2-6.46,3.14-10.63,3.48-12.51a99.32,99.32,0,0,0,1-15.9,100,100,0,0,1,1-15.91c1.4-7.69,6.36-10.37,14.86-7.93,8.71,2.51,12.31,7.67,10.81,15.37-.29,1.54-.59,3.08-.89,4.62l-1.15,5.91c-2.48,12.85.82,24.58,9.73,35.3s22.14,18.88,39.74,24.81c16.31,5.51,29.91,7.1,41,4.56s17.9-8.91,20.44-19.32c3.9-15.9-6.76-30.74-32.43-43.54q-9.14-4.55-18.32-9c-18.27-8.83-32.38-16.38-42.21-23-9-6.16-15.69-13.49-20.15-22.07s-5.91-17.21-4.29-25.93c2.77-15,12.37-25.23,29-30.23S1491.5,162.17,1515,170.05Z"/><path class="cls-2" d="M1743.59,424.25c-4.13,12.11-1,20.94,9.33,26.67,1.62.9,4.13,2.05,7.51,3.47a76.65,76.65,0,0,1,7.49,3.51,15,15,0,0,1,6,6.17q2,3.93.91,7c-2,5.6-7.55,5.78-16.58.67l-1.81-1a21.5,21.5,0,0,0-2-1.43q-7.1-5-14.22-9.89a189.45,189.45,0,0,0-18.83-11.29,198.51,198.51,0,0,0-20.8-9.71q-7.93-3.06-15.9-6.05a12.85,12.85,0,0,0-2.23-.82l-2.15-1.07c-9-4.47-12.68-9.5-10.91-15.24,1.61-5.24,5.74-6.27,12.36-3a79,79,0,0,1,7.25,4.3c3.17,2.05,5.58,3.5,7.23,4.33,10.28,5.2,17.4,1.8,21.42-10.38l5.61-17,7-21.43,6.81-20.7q6.53-19.84,13.06-39.69c3.79-11.5-2.22-21.44-18.17-29.41q-5.09-2.53-10.17-5c-15.79-7.73-25.48-5.66-28.92,5.83a68.91,68.91,0,0,0-2.2,8.53c-.48,3.25-1,6.49-1.45,9.73a45,45,0,0,1-1.54,6.31c-3.13,10.35-8.89,13.52-17.29,9.62-8-3.69-10.88-9.29-8.68-16.88q.93-3.21,3.89-10.84,4.44-11.43,5.39-14.64,1.8-6.18,3.19-13.12,2.71-13.61,2.14-11.63c2-6.93,7.25-8.5,15.68-4.59,3.1,1.44,10.24,5,21.35,10.92,1.09.54,10.06,5.15,26.73,14.25q18.73,9.4,37.29,19.28c4.34,2.32,16,8.33,34.83,18.55,4.08,2.29,11.14,6,21.13,11.3,8.92,4.66,15.81,8.5,20.71,11.43,10.63,6.37,14.66,12.89,12.17,19.37l-.18.47a84.58,84.58,0,0,1-4.15,8.3q-3.26,5.92-7,12.71c-.34.87-.67,1.74-1,2.61a105.8,105.8,0,0,0-3.33,11.74q-2.58,10.73-3.49,13.1c-2.49,6.5-7.74,7.26-15.79,2.41-7.86-4.71-10.32-11-7.36-19a123.48,123.48,0,0,1,5.7-12.27,121.75,121.75,0,0,0,5.71-12.27c4.11-11-2.19-21.56-19.07-31.2q-4.48-2.55-9-5.08c-7.93-4.45-14.07-6.33-18.36-5.72s-7.67,3.73-10.08,9.3-4.73,10.83-7.09,16.25Z"/><path class="cls-2" d="M277.82,512.52c15.59-7.57,29.91-8.52,42.65-3-.19-.66-.39-1.32-.58-2s-.36-1.26-.57-2a6.64,6.64,0,0,1-.79-1.07c-1-2.51-1.54-3.65-1.47-3.41-1.18-4.07.43-7.12,4.83-9.09,4.69-2.09,7.74-.65,9.13,4.28.27.94.92,3.82,2,8.64a106.62,106.62,0,0,0,2.18,12.71,65.41,65.41,0,0,0,3.47,9.37q1.44,3.13,2.86,6.27c.16.58.33,1.17.5,1.76q2.24,7.92-5.25,11.25c-5.4,2.42-8.75,1.13-10.07-3.92-.61-2.09-1.21-4.18-1.82-6.27-2.16-8.48-7.27-13.87-15.38-16s-17.52-.73-28.11,4.4c-13.8,6.7-23.14,16.56-28,29.27s-4.59,26.8.55,42.2c5.25,15.76,13.19,26,23.71,30.88s22.55,3.94,36.29-2.71a56.51,56.51,0,0,0,18.75-14.29c5-5.94,8.05-12,9-18.27q1-6.19-1.53-14.81c-1.56-5.38.26-9.26,5.48-11.59,5.64-2.51,9.22-1,10.74,4.37,3.53,12.59,1.36,25.06-6.3,37.51s-19.21,22.29-34.72,29.82c-17.88,8.7-33.77,10.5-48.05,5.17s-24.58-16.86-30.79-35c-6.4-18.65-6-36.75,1.5-54.24S258.85,521.72,277.82,512.52Z"/><path class="cls-2" d="M452.09,578.7c-18.21,6.68-33.91,6.6-47.47-.51s-23-20.19-28.22-39.57c-5.26-19.59-3.93-37.29,4.3-53S403,458.24,422.93,451c19-6.95,35.52-6.62,49.16.72s22.33,20.61,26.25,39.53c4.24,20.51,2,38.53-6.3,54.16S470.43,572,452.09,578.7ZM425.34,464.09c-13.86,5.08-23.49,13.63-28.82,25.37s-5.86,25.59-1.75,41.46C398.94,547,405.85,558,415.39,564s20.76,6.52,33.84,1.72C462,561,471.17,552.86,476.71,541s6.66-25.81,3.2-41.81S470,471.85,460.58,465.7,439.34,459,425.34,464.09Z"/><path class="cls-2" d="M572,416.76q38.38,43.41,74.35,88.66l-10.5-74.1q-2-14.34-2.47-15.77c-2.23-6.08-6.41-8.47-12.5-7.11a46.94,46.94,0,0,0-5.28,1.66,48.71,48.71,0,0,1-5.27,1.68,7.34,7.34,0,0,1-5.27-.58,4.79,4.79,0,0,1-2.75-3.63c-.69-4.39,2.32-7.39,9-8.93a15.92,15.92,0,0,1,2.93-.48q5.12-.6,10.24-1.15a127.68,127.68,0,0,0,12.65-2q5.82-1.23,15.34-4.2c2.22-.67,4.8-1.47,7.76-2.4a13.11,13.11,0,0,0,1.55-.48l1.58-.3q9.68-1.86,10.46,4.53c.51,4.12-2.28,6.74-8.36,7.91l-2.5.48-2.28.45c-4.55.89-7.41,2.29-8.56,4.16s-1.52,5.53-1.09,11l1.41,10.48q1.25,9.38,2.51,18.75,3.3,24.54,6.59,49.09,1.7,12.69-.92,18.52c-1.75,3.88-5.32,6.38-10.71,7.54-7,1.49-13.45-1.48-19.58-8.95Q594.9,468,557.08,426L572,510.86c1.61,9.12,6,12.7,13.2,10.82q1.68-.43,5-1.58t5-1.57c4.53-1.15,7.11.25,7.74,4.16.68,4.15-2.16,7-8.48,8.6l-1.26.32a10.68,10.68,0,0,0-1.51.2c-2.94.37-5.88.76-8.82,1.15a102.07,102.07,0,0,0-13.63,2.71,136.67,136.67,0,0,0-13.9,4.83c-3.35,1.34-6.71,2.69-10,4a9.52,9.52,0,0,0-1.43.61l-1.68.49c-6,1.77-9.4.57-10.23-3.67q-1.11-5.62,5.61-7.63,1.05-.32,5.75-1.31a20,20,0,0,0,4.52-.74c7.15-2.06,9.91-7.6,8.24-16.71l-2.34-12.74-2.94-16Q549.42,479,548,471.17q-2.64-14.39-5.27-28.77c-1.67-9.1-6.3-12.6-13.88-10.42a40.23,40.23,0,0,0-4.3,1.64,59.37,59.37,0,0,1-6,2.34c-4.65,1.38-7.36.09-8.15-3.9-.83-4.23,1.9-7.31,8.23-9.18.88-.26,2.07-.54,3.56-.85,7.47-1.54,13.2-2.84,17.18-3.95,2.21-.62,5.49-1.73,9.86-3.3s7.66-2.64,9.88-3.23c4.59-1.22,7.84-.72,9.75,1.45Z"/><path class="cls-2" d="M726.37,448.31q-.81-7.79-1.6-15.56l-3-29.44c-.94-9.13-5.2-13.12-12.79-11.89a15.37,15.37,0,0,0-4.4,1.26,30.26,30.26,0,0,1-5.71,1.75,6.8,6.8,0,0,1-5.1-1,5.42,5.42,0,0,1-2.52-4.12c-.52-4.43,2.38-7.22,8.71-8.28.75-.13,1.88-.26,3.4-.39q7.86-.65,15.72-1.21,8.9-.63,19.74-2.2c3.93-.55,12.35-1.95,25.32-4q13-2,26-3.81,5.21-.75,12.22-1.85a57.2,57.2,0,0,1,6.8-1c8-.78,12.23,1.8,12.57,7.63a71.46,71.46,0,0,1-.53,10.34,70.64,70.64,0,0,0-.5,10.52c.12,2,.41,4.46.89,7.41a81.77,81.77,0,0,1,.94,8.15c.3,5.09-2.22,7.87-7.55,8.37-5.49.52-8.42-2.09-8.81-7.9-.11-1.72-.18-4.39-.19-8s-.08-6.27-.19-8q-.64-9.81-7.6-11.71c-4.63-1.25-15.4-1-32.24,1.1-14.29,1.8-22.29,4-24,6.4q-2,2.73-.64,17.38.66,6.85,1.3,13.72c.33,3.46,1.08,5.51,2.27,6.16s4.27.61,9.29-.07l7.3-1c9.59-1.25,14.16-4.78,13.69-10.73a37.56,37.56,0,0,0-1-5.5,37.16,37.16,0,0,1-1-5.32q-.57-7.06,7.51-8c5.08-.59,7.83,1.86,8.23,7.31a38.5,38.5,0,0,1-.19,4.52c-.27,3.41-.55,6.81-.81,10.22a72,72,0,0,0-.29,10.15,104.58,104.58,0,0,0,3.76,19.07,38.15,38.15,0,0,1,1.32,7.35c.35,4.83-2.08,7.53-7.31,8.14-4.94.58-7.61-1.71-8-6.91q-.15-1.86-.12-5.61c0-2.51,0-4.38-.12-5.62-.31-3.83-1.75-6.16-4.34-7-1.69-.66-5.1-.68-10.24,0-2.28.29-4.55.6-6.83.91-5.14.69-8.24,1.64-9.32,2.78s-1.41,3.93-1,8.34l2.07,21.89q.81,8.65,3.37,11.36t8.8,1.85l4.74-.63,4.75-.62c6.62-.86,10.1.86,10.44,5.06a5.9,5.9,0,0,1-1.89,4.74,8.82,8.82,0,0,1-5.33,2.54,84.77,84.77,0,0,1-10.16.4,143.68,143.68,0,0,0-21.57,1.75,124.68,124.68,0,0,0-16.37,3.67L717,505.35a7.14,7.14,0,0,0-1.48.43l-1.28.22c-6.27,1.05-9.65-.61-10.17-5-.45-3.94,1.54-6.31,6-7.07.57-.09,2.45-.29,5.63-.57a20.15,20.15,0,0,0,4.57-.18c3.87-.64,6.45-2.08,7.74-4.35s1.75-6,1.37-11.22Q727.87,462.93,726.37,448.31Z"/><path class="cls-2" d="M872,387.38c-.34-9.19-4.37-13.59-12.08-13.1a22.37,22.37,0,0,0-4.74.69,44,44,0,0,1-6.09,1,7.2,7.2,0,0,1-5.08-1.41,5.44,5.44,0,0,1-2.26-4.22c-.22-4.34,2.85-6.77,9.21-7.21.15,0,1.29,0,3.41-.05,22.76-.26,33.37,0,31.86.05l2.26-.11q27.35-1.9,54.74-2.84c1.06,0,5-.24,11.82-.63q3.63-.19,6.59-.2c7.89,0,11.81,2.93,11.78,8.65q0,1.5-.71,9.51c-.34,4-.52,7.65-.54,11a76,76,0,0,0,.32,9.15,64.61,64.61,0,0,1,.7,8c0,4.74-2.68,7.07-8,7.05s-7.91-3.31-7.92-9.91c0-3.23,0-6.47,0-9.7,0-10.45-2.65-16.62-8-18.45-3.94-1.33-14.08-2-30.42-1.56-10.74.29-17.08.73-19,1.18-6.46,1.62-9.6,5.51-9.41,11.6q.12,4.19.25,8.39c0,1,.06,2.36.12,4.1s.09,3,.11,3.73,0,1.62.07,2.43q.23,7.45,4.21,8.41a26.84,26.84,0,0,0,5.29.16c3-.12,6-.23,9-.33,9.23-.29,13.81-3,13.73-8.41a38.12,38.12,0,0,0-.65-5.77,41.17,41.17,0,0,1-.66-6.33c-.09-5,2.54-7.54,7.89-7.64s8,2.54,8.09,7.89q0,1.5-1.34,11.59a106.4,106.4,0,0,0-1.08,15.14q0,3.74,1,13.24c.15,1,.55,3.16,1.17,6.51a44.84,44.84,0,0,1,.72,6.53c0,4.48-2.57,6.75-7.83,6.85s-7.71-2.45-7.8-7.67a46.35,46.35,0,0,1,.46-6,48.12,48.12,0,0,0,.46-6c-.09-5.35-4.34-7.94-12.78-7.68l-10,.35c-4.29.17-6.89.91-7.81,2.19s-1.33,4-1.21,8.09l.35,11.56c0,2,.21,4.66.45,8q.4,6.15.46,8.2c.29,5,1.55,8,3.75,9.18,1.62.8,5.39,1.08,11.33.87q14.76-.51,29.53-.72c8.55-.12,14.4-1.23,17.59-3.42s4.79-6.26,4.79-12.23q0-2.81-.32-8.31t-.33-8.3c0-5.6,2.61-8.41,7.85-8.38,5.53,0,8.27,2.93,8.23,8.65q0,3.36-.4,10.26c-.25,4.6-.39,8-.4,10.26q0,2.63.27,7.75t.27,7.75c0,5.85-3.38,8.73-10,8.7q-2.38,0-7.56-.38-2.6-.19-9.51-.15c1,0-4.61-.12-16.85-.15s-22.84.21-31.76.57q-20.31.82-39.67,3.26a11.91,11.91,0,0,0-1.93.32l-1.3.09c-6,.42-9.16-1.58-9.39-6.05q-.3-6,6.42-6.46c.73-.05,2.68-.06,5.87,0a20.1,20.1,0,0,0,4.58.26c7.37-.47,10.88-5.32,10.53-14.65Q873.46,424.77,872,387.38Z"/><path class="cls-2" d="M1071.26,360c14.9,1.06,26.86,6,35.73,14.76,0-.87.11-1.74.16-2.61.3-4.83,2.81-7,7.51-6.57,5.16.52,7.55,3.46,7.18,8.79,0,.37,0,.75-.08,1.12s-.37,2.08-1.06,5.51a95.27,95.27,0,0,0-1.54,12.39q-.06.93,0,6,.09,3.75.16,7.5a12.14,12.14,0,0,1,0,2.63q-.62,8.92-8.85,8.09c-5.78-.57-8.52-3.32-8.21-8.28l.06-.93c.25-1.66.5-3.32.76-5s.41-3.08.47-4.08a20.73,20.73,0,0,0-8.06-18.33c-5.85-4.75-14.17-7.57-24.91-8.34-9.83-.71-17.75.81-23.71,4.46s-9,8.86-9.26,15.57c-.26,7.84,3.81,13.82,12.14,18,4.68,2.28,12.93,4.58,24.71,7.09,17.54,3.7,29.38,8.11,35.6,12.85,9.33,7.05,13.53,16.21,12.72,27.36-.84,11.66-6.42,20.58-16.59,26.93s-22.85,8.87-38.16,7.74c-16.32-1.2-29.66-6.41-40.2-15.86,0,.49,0,1-.05,1.65s0,1,0,1.11a18.49,18.49,0,0,1,.74,3.9c-.14,4.54-2.86,6.68-8.17,6.46-5.75-.24-8.57-2.94-8.45-8.17a1.84,1.84,0,0,1,.68-1.47l1.23-9.67c.61-4.83.94-7.93,1-9.3a77.7,77.7,0,0,0-.93-11.23,78.16,78.16,0,0,1-.94-11.24c.13-5.6,3-8.31,8.6-8.08,5.76.24,8.55,3.19,8.37,8.81,0,1.12-.07,2.24-.1,3.37s-.08,2.43-.14,4.31c-.28,9.36,3,16.94,9.72,22.8s16,9.16,27.78,10c10.93.8,19.74-.69,26.5-4.57s10.4-9.63,10.9-17.32c.77-11.77-7.56-19.89-25.1-23.92q-6.26-1.44-12.51-2.81c-12.44-2.76-22.11-5.47-29-8.32a34.13,34.13,0,0,1-14.9-11.81,28.12,28.12,0,0,1-5.27-17.3c.28-10.94,5.31-19.67,15.23-26.06S1055.75,358.86,1071.26,360Z"/><path class="cls-2" d="M1222.56,378.24c14.76,2.52,26.33,8.67,34.6,18.21l.33-2.58c.62-4.79,3.25-6.74,7.9-5.81,5.1,1,7.29,4.19,6.58,9.46l-.15,1.11c0,.25-.51,2-1.41,5.38a95.7,95.7,0,0,0-2.33,12.21q-.12.91-.35,6l-.33,7.5a12,12,0,0,1-.12,2.62c-.8,5.9-3.91,8.28-9.33,7.2-5.71-1.14-8.27-4.14-7.64-9.06l.12-.92c.35-1.63.71-3.26,1.07-4.89s.62-3,.74-4a21.45,21.45,0,0,0-6.84-19.06c-5.52-5.31-13.62-8.94-24.26-10.75-9.74-1.67-17.73-.93-23.89,2.13s-9.57,7.95-10.23,14.62c-.76,7.79,2.91,14.14,10.93,19.17,4.51,2.72,12.58,5.83,24.15,9.48,17.21,5.4,28.71,11,34.6,16.29,8.83,7.94,12.42,17.49,10.89,28.53-1.59,11.53-7.72,19.88-18.25,25.21s-23.31,6.61-38.48,4c-16.16-2.79-29.11-9.28-39-19.73,0,.48-.1,1-.15,1.64s-.1,1-.11,1.1a18.83,18.83,0,0,1,.49,4c-.43,4.51-3.28,6.38-8.55,5.64-5.71-.79-8.35-3.76-7.89-9a1.75,1.75,0,0,1,.78-1.4q.91-4.75,1.84-9.52c.92-4.75,1.45-7.81,1.57-9.17a77.79,77.79,0,0,0-.21-11.3,77.64,77.64,0,0,1-.21-11.29c.49-5.57,3.52-8,9.09-7.21s8.3,4,7.76,9.59c-.1,1.12-.21,2.24-.32,3.35s-.23,2.42-.41,4.28a28.51,28.51,0,0,0,8.21,23.69c6.34,6.5,15.32,10.68,27,12.69,10.83,1.86,19.7,1.24,26.67-2s11-8.58,12-16.2c1.53-11.65-6.23-20.57-23.44-26.3q-6.12-2-12.26-4c-12.21-4-21.67-7.61-28.32-11.12a35.75,35.75,0,0,1-14.08-13.22,28.84,28.84,0,0,1-4.13-17.76c1-10.88,6.55-19.09,16.84-24.49S1207.18,375.62,1222.56,378.24Z"/><path class="cls-2" d="M1332.08,430.5c1.48-9-1.55-14.49-9.11-16.31a22.11,22.11,0,0,0-4.73-.75,43,43,0,0,1-6.08-.86,8,8,0,0,1-4.63-2.88,6,6,0,0,1-1.36-4.77c.64-4.28,4.24-5.68,10.8-4.14.9.21,1.93.52,3.1.92q5.82,2,11.63,4.14c4.38,1.58,8.93,3,13.68,4.19q6.9,1.75,15.27,3c3.4.52,6.79,1.05,10.19,1.6a30.13,30.13,0,0,1,3.14.67c6.5,1.79,9.36,4.84,8.57,9.09a5,5,0,0,1-2.77,3.71,6.91,6.91,0,0,1-5.17.38,49.31,49.31,0,0,1-5.86-2.19,23.28,23.28,0,0,0-4.57-1.62c-7.52-2-12.06,1.51-13.6,10.51q-6.27,36.61-12.56,73.23c-1.56,9.14,1.26,14.63,8.43,16.57a39.18,39.18,0,0,0,4.51.84,48.05,48.05,0,0,1,5.79,1c4.36,1.21,6.19,3.78,5.47,7.66-.81,4.37-4.29,5.67-10.44,4l-1.47-.4a7.84,7.84,0,0,0-1.44-.59q-5.32-2.22-10.68-4.4a90.53,90.53,0,0,0-11.46-3.75,118.21,118.21,0,0,0-16-3q-5-.55-9.92-1.06a10.84,10.84,0,0,0-1.51-.17l-1.7-.4c-6.06-1.42-8.77-4.31-8.1-8.71.58-3.92,3.08-5.38,7.48-4.35q1.07.24,5.68,1.71a21,21,0,0,0,4.38,1.62c7.22,1.74,11.57-1.92,13.06-11.08Z"/><path class="cls-2" d="M1442,569.78c-18.3-6.33-31.62-16.76-40.1-31.73s-10.94-32.3-7.07-52.15c3.92-20.08,12.62-34.19,26.33-42.06s30.7-8.49,50.69-1.56c19.1,6.64,32.93,17.79,41.34,33s10.1,32.18,5.34,50.79c-5.16,20.18-14.72,34-28.45,41.78S1460.38,576.17,1442,569.78ZM1468.23,455c-13.93-4.82-25.76-3.92-35.31,2.51s-15.92,17.82-19.22,34c-3.35,16.41-2.18,30.28,3.37,41.64s14.84,19.21,28,23.76c12.88,4.46,24.1,3.54,33.88-2.91s16.66-17.5,20.56-33.34,3.28-29.65-2.09-41.07S1482.29,459.88,1468.23,455Z"/><path class="cls-2" d="M1612.39,511.42q13.81,62.1,24.73,124.16l22.72-69.73q4.4-13.5,4.64-15c.72-6.63-1.77-11.41-7.46-14.28a48.13,48.13,0,0,0-5.14-2.07,50.31,50.31,0,0,1-5.14-2,9.39,9.39,0,0,1-4.18-4,6,6,0,0,1-.77-4.88c1.3-4.18,5.1-4.74,11.4-1.62a18.32,18.32,0,0,1,2.67,1.53q4.55,2.87,9.08,5.78,6,3.87,11.45,6.68t14.65,6.57l7.51,3.09a14.17,14.17,0,0,0,1.51.62l1.44.78c5.93,3.21,8.2,6.82,6.83,10.76S1703.56,562,1698,559l-2.31-1.25-2.09-1.12c-4.2-2.26-7.18-3-8.94-2.14s-3.63,3.69-5.59,8.6q-1.65,4.9-3.28,9.81-2.94,8.77-5.87,17.55l-15.37,46q-4,11.88-8.65,15.08c-3.12,2.14-7.17,1.91-12.19-.67-6.47-3.33-10.65-10.14-12.62-20.51q-11.22-60.4-25.22-120.84l-23.58,81.73c-2.53,8.8-.35,14.72,6.5,17.87,1.08.49,2.71,1.15,4.92,2s3.83,1.48,4.91,2c4.29,2,5.87,4.9,4.74,8.62-1.2,4-4.8,4.51-10.8,1.71l-1.2-.56A10.74,10.74,0,0,0,1580,622q-3.95-2.43-7.91-4.84a114.11,114.11,0,0,0-12.64-6.68,138.39,138.39,0,0,0-13.78-5.05q-5.1-1.6-10.21-3.18a9.89,9.89,0,0,0-1.47-.43l-1.62-.68c-5.82-2.45-8.18-5.71-7.08-9.85,1-3.66,3.64-4.6,8-2.77q1,.42,5.41,2.67a22.07,22.07,0,0,0,4.13,2.35c6.91,3,11.59.07,14.07-8.74l3.46-12.35q2.17-7.75,4.36-15.52,2.11-7.57,4.25-15.16,3.9-13.93,7.81-27.86c2.48-8.81.07-14.83-7.26-18a39.64,39.64,0,0,0-4.32-1.44,57.62,57.62,0,0,1-6.07-2c-4.52-1.89-6.26-4.77-5.22-8.67,1.1-4.13,4.72-4.94,10.86-2.36.85.36,2,.9,3.37,1.62,7,3.61,12.35,6.28,16.18,7.95q3.2,1.39,9.72,3.7t9.7,3.77c4.38,2,6.91,4.54,7.59,7.65Z"/><text class="cls-3" transform="translate(872.42 695.82) scale(1.08 1)">OF<tspan class="cls-4"><tspan x="-156.32" y="150.74">F</tspan><tspan class="cls-5" x="-72.38" y="150.74">AITH</tspan></tspan></text><text class="cls-6" transform="translate(617.44 1009.81) scale(1.17 1)">1<tspan class="cls-7" x="153.49" y="0">689</tspan></text><path class="cls-8" d="M-188,655.5"/></svg>